HIERARCHY
ROOT Hips
{
  OFFSET 56.6652 94.1604 22.4703
  CHANNELS 6 Xposition Yposition Zposition Zrotation Xrotation Yrotation
  JOINT spine
  {
    OFFSET 0 7.4756 0.429885
    CHANNELS 3 Zrotation Xrotation Yrotation
    JOINT spine1
    {
      OFFSET 0 9.92301 0
      CHANNELS 3 Zrotation Xrotation Yrotation
      JOINT spine2
      {
        OFFSET 0 9.50804 0
        CHANNELS 3 Zrotation Xrotation Yrotation
        JOINT Neck
        {
          OFFSET 0 24.4111 1.16384
          CHANNELS 3 Zrotation Xrotation Yrotation
          JOINT Head
          {
            OFFSET 0 7.37523 0
            CHANNELS 3 Zrotation Xrotation Yrotation
            End Site
            {
              OFFSET 0 17.8522 -5.88741
            }
          }
        }
        JOINT RightShoulder
        {
          OFFSET -4.00356 10.2679 -0.557468
          CHANNELS 3 Zrotation Xrotation Yrotation
          JOINT RightArm
          {
            OFFSET 0 13.4673 0
            CHANNELS 3 Zrotation Xrotation Yrotation
            JOINT RightArmRoll
            {
              OFFSET 0 6.79858 0
              CHANNELS 3 Zrotation Xrotation Yrotation
              JOINT RightForeArm
              {
                OFFSET 0 19.8018 0
                CHANNELS 3 Zrotation Xrotation Yrotation
                JOINT RightForeArmRoll
                {
                  OFFSET 0 7.62905 0
                  CHANNELS 3 Zrotation Xrotation Yrotation
                  JOINT RightHand
                  {
                    OFFSET 0 15.3098 0
                    CHANNELS 3 Zrotation Xrotation Yrotation
                    End Site
                    {
                      OFFSET 0 0 0
                    }
                  }
                }
              }
            }
          }
        }
        JOINT LeftShoulder
        {
          OFFSET 4.00356 10.2679 -0.557468
          CHANNELS 3 Zrotation Xrotation Yrotation
          JOINT LeftArm
          {
            OFFSET 0 13.4673 0
            CHANNELS 3 Zrotation Xrotation Yrotation
            JOINT LeftArmRoll
            {
              OFFSET 0 6.79858 0
              CHANNELS 3 Zrotation Xrotation Yrotation
              JOINT LeftForeArm
              {
                OFFSET 0 19.8018 0
                CHANNELS 3 Zrotation Xrotation Yrotation
                JOINT LeftForeArmRoll
                {
                  OFFSET 0 7.62905 0
                  CHANNELS 3 Zrotation Xrotation Yrotation
                  JOINT LeftHand
                  {
                    OFFSET 0 15.3098 0
                    CHANNELS 3 Zrotation Xrotation Yrotation
                    End Site
                    {
                      OFFSET 0 0 0
                    }
                  }
                }
              }
            }
          }
        }
      }
    }
  }
  JOINT RightUpLeg
  {
    OFFSET -6.62609 -1.21505 -1.01927
    CHANNELS 3 Zrotation Xrotation Yrotation
    JOINT RightUpLegRoll
    {
      OFFSET 0 17.9517 0
      CHANNELS 3 Zrotation Xrotation Yrotation
      JOINT RightLeg
      {
        OFFSET 0 -22.2304 0
        CHANNELS 3 Zrotation Xrotation Yrotation
        JOINT RightLegRoll
        {
          OFFSET 0 22.3032 0
          CHANNELS 3 Zrotation Xrotation Yrotation
          JOINT RightFoot
          {
            OFFSET 0 18.5636 0
            CHANNELS 3 Zrotation Xrotation Yrotation
            JOINT RightToeBase
            {
              OFFSET 0 15.5183 0
              CHANNELS 3 Zrotation Xrotation Yrotation
              End Site
              {
                OFFSET 0.00657761 7.51538 -0.866263
              }
            }
          }
        }
      }
    }
  }
  JOINT LeftUpLeg
  {
    OFFSET 6.62609 -1.21505 -1.01927
    CHANNELS 3 Zrotation Xrotation Yrotation
    JOINT LeftUpLegRoll
    {
      OFFSET 0 17.9518 0
      CHANNELS 3 Zrotation Xrotation Yrotation
      JOINT LeftLeg
      {
        OFFSET 0 22.2303 0
        CHANNELS 3 Zrotation Xrotation Yrotation
        JOINT LeftLegRoll
        {
          OFFSET 0 22.5093 0
          CHANNELS 3 Zrotation Xrotation Yrotation
          JOINT LeftFoot
          {
            OFFSET 0 18.3575 0
            CHANNELS 3 Zrotation Xrotation Yrotation
            JOINT LeftToeBase
            {
              OFFSET 0 15.5183 0
              CHANNELS 3 Zrotation Xrotation Yrotation
              End Site
              {
                OFFSET -0.029478 7.51539 -0.866263
              }
            }
          }
        }
      }
    }
  }
}
MOTION
Frames: 6
Frame Time: 0.00208333
51.6168 57.8348 -14.2336 -9.01552 -9.91663 -3.63995 0.791753 -0.41096 -2.84532 1.60084 3.12257 -5.79758 1.67243 4.76373 -5.82983 -27.5061 32.1773 19.3352 19.4194 -17.8435 12.2438 84.152 7.54229 -0.257882 92.6729 28.3459 14.7761 7.38072e-006 3.10748e-006 -1.46948e-005 9.59117 0.0697416 -0.919791 -3.88326e-006 4.86472e-006 -3.00983 8.02898 -4.95148 0.697714 -82.9343 -8.37477 5.71491 -82.717 8.00875 -24.6101 2.06084e-006 1.26027e-006 -1.39868e-006 -6.15194 13.1628 1.9476 -1.21278e-005 1.51397e-006 3.00853 -8.0294 -4.95141 -0.697647 -143.043 70.3539 -23.4089 180 3.04918e-005 177.647 -167.312 84.8641 164.524 -2.21856e-006 1.23206e-006 1.97692 -15.9881 62.9305 16.0618 8.1462 25.2321 -3.49188 -132.129 70.893 -48.5118 4.5067e-006 -1.99009e-005 -1.23267 60.1228 -84.2771 59.8769 -3.02796e-006 7.70169e-007 -1.94298 15.9552 61.4723 -15.1881 -8.43338 27.9954 5.60764 
51.6232 57.828 -14.2329 -9.01428 -9.91546 -3.63467 0.791749 -0.408249 -2.84185 1.6006 3.12947 -5.78993 1.6721 4.77064 -5.82218 -27.4439 32.0958 19.2791 19.4022 -17.7475 12.2151 84.1203 7.54746 -0.250587 92.6986 28.3525 14.7777 7.38072e-006 3.10748e-006 -1.46948e-005 9.58018 0.0697592 -0.918875 -3.88326e-006 4.86472e-006 -3.00983 8.02898 -4.95148 0.697714 -82.9165 -8.37508 5.71468 -82.7356 8.036 -24.597 2.06084e-006 1.26027e-006 -1.39868e-006 -6.15282 13.1335 1.9446 -1.21278e-005 1.51397e-006 3.00853 -8.0294 -4.95141 -0.697647 -143.033 70.363 -23.4187 180 3.04918e-005 177.647 -167.283 84.8654 164.495 -2.21856e-006 1.23206e-006 1.97704 -15.9899 62.9338 16.0639 8.1462 25.2321 -3.49188 -132.118 70.9029 -48.5277 4.5067e-006 -1.99009e-005 -1.2326 60.1571 -84.2777 59.9105 -3.02796e-006 7.7017e-007 -1.94305 15.9451 61.4639 -15.1846 -8.4336 27.9981 5.60991 
51.617 57.83 -14.2378 -9.01315 -9.91359 -3.63049 0.791709 -0.405661 -2.83856 1.60025 3.13619 -5.78261 1.67167 4.77737 -5.81486 -27.3837 32.014 19.2248 19.3858 -17.6512 12.1875 84.0887 7.55326 -0.243104 92.7255 28.3596 14.7777 7.38072e-006 3.10748e-006 -1.46948e-005 9.56996 0.0697841 -0.917827 -3.88326e-006 4.86472e-006 -3.00983 8.02898 -4.95148 0.697714 -82.8979 -8.37703 5.71505 -82.7549 8.06294 -24.5836 2.06084e-006 1.26027e-006 -1.39868e-006 -6.15397 13.1063 1.94183 -1.21278e-005 1.51397e-006 3.00853 -8.0294 -4.95141 -0.697647 -143.019 70.372 -23.4326 180 3.04918e-005 177.647 -167.259 84.867 164.47 -2.21856e-006 1.23206e-006 1.97713 -15.9917 62.937 16.066 8.1462 25.2321 -3.49188 -132.101 70.9121 -48.5495 4.5067e-006 -1.99009e-005 -1.23251 60.1961 -84.2789 59.949 -3.02796e-006 7.7017e-007 -1.94317 15.9352 61.4557 -15.1812 -8.43384 28.0011 5.61241 
51.624 57.8028 -14.2089 -9.01211 -9.91123 -3.62709 0.791642 -0.40316 -2.83539 1.59983 3.14276 -5.77551 1.67117 4.78395 -5.80776 -27.3252 31.9319 19.172 19.3699 -17.5546 12.1608 84.0572 7.5595 -0.235489 92.7534 28.3671 14.7766 7.38072e-006 3.10748e-006 -1.46948e-005 9.56029 0.0698141 -0.916687 -3.88326e-006 4.86472e-006 -3.00983 8.02898 -4.95148 0.697714 -82.8788 -8.38015 5.71583 -82.7747 8.08967 -24.5698 2.06084e-006 1.26027e-006 -1.39868e-006 -6.15532 13.0807 1.93924 -1.21278e-005 1.51397e-006 3.00853 -8.0294 -4.95141 -0.697647 -143.002 70.3809 -23.4494 180 3.04918e-005 177.646 -167.236 84.8687 164.448 -2.21856e-006 1.23206e-006 1.97722 -15.9934 62.9401 16.0681 8.1462 25.2321 -3.49188 -132.08 70.9208 -48.5753 4.5067e-006 -1.99009e-005 -1.23239 60.2385 -84.2806 59.991 -3.02796e-006 7.70169e-007 -1.94331 15.9255 61.4478 -15.178 -8.4341 28.0044 5.61507 
51.6207 57.8049 -14.2172 -9.01112 -9.90859 -3.62412 0.791562 -0.400707 -2.83229 1.59936 3.14927 -5.76854 1.67062 4.79046 -5.80078 -27.2675 31.8496 19.1199 19.3544 -17.458 12.1345 84.0258 7.56598 -0.227799 92.7818 28.3747 14.7749 7.38072e-006 3.10748e-006 -1.46948e-005 9.55093 0.0698471 -0.915496 -3.88326e-006 4.86472e-006 -3.00983 8.02898 -4.95148 0.697714 -82.8594 -8.38392 5.71684 -82.7947 8.11628 -24.556 2.06084e-006 1.26027e-006 -1.39868e-006 -6.15678 13.0559 1.93673 -1.21278e-005 1.51397e-006 3.00853 -8.0294 -4.95141 -0.697647 -142.984 70.3898 -23.4678 180 3.04918e-005 177.646 -167.215 84.8705 164.426 -2.21856e-006 1.23206e-006 1.97729 -15.9951 62.9431 16.0701 8.1462 25.2321 -3.49188 -132.057 70.9293 -48.6035 4.5067e-006 -1.99009e-005 -1.23226 60.2828 -84.2824 60.0349 -3.02796e-006 7.7017e-007 -1.94347 15.9158 61.4399 -15.1747 -8.43437 28.0077 5.61783 
51.6119 57.8165 -14.2466 -9.01014 -9.90588 -3.62127 0.791477 -0.398267 -2.82921 1.59888 3.15575 -5.7616 1.67007 4.79695 -5.79384 -27.2103 31.7673 19.0681 19.3391 -17.3613 12.1084 83.9944 7.57252 -0.220089 92.8103 28.3824 14.773 7.38072e-006 3.10748e-006 -1.46948e-005 9.54164 0.0698808 -0.914291 -3.88326e-006 4.86472e-006 -3.00983 8.02898 -4.95148 0.697714 -82.8399 -8.38786 5.71791 -82.8147 8.14287 -24.542 2.06084e-006 1.26027e-006 -1.39868e-006 -6.15827 13.0313 1.93425 -1.21278e-005 1.51397e-006 3.00853 -8.0294 -4.95141 -0.697647 -142.966 70.3987 -23.4867 180 3.04918e-005 177.646 -167.194 84.8723 164.405 -2.21856e-006 1.23206e-006 1.97737 -15.9968 62.9461 16.0722 8.1462 25.2321 -3.49188 -132.033 70.9376 -48.6322 4.5067e-006 -1.99009e-005 -1.23213 60.3275 -84.2844 60.0793 -3.02796e-006 7.7017e-007 -1.94363 15.9061 61.432 -15.1715 -8.43465 28.011 5.62061 
